<?xml version="1.0" encoding="utf-8"?>
<!-- Generator: Adobe Illustrator 25.2.3, SVG Export Plug-In . SVG Version: 6.00 Build 0)  -->
<svg version="1.1" id="Calque_1" xmlns="http://www.w3.org/2000/svg" xmlns:xlink="http://www.w3.org/1999/xlink" x="0px" y="0px"
	 viewBox="0 0 731.2 642.8" style="enable-background:new 0 0 731.2 642.8;" xml:space="preserve">
<style type="text/css">
	.st0{fill:#000091;}
	.st1{fill:#E1000F;}
	.st2{fill:#9D9D9C;}
</style>
<g id="Calque_3">
</g>
<g id="vect">
	<g>
		<g>
			<g>
				<path d="M1,169.5h26c18.7,0,30.3,9.6,30.3,25.4c0,10.2-5,17.9-13.6,22l26.7,37.7H49.8l-22.6-34.4h-8.9v34.4H1V169.5z
					 M18.3,184.2v21.3H28c7.3,0,11.5-3.9,11.5-10.8c0-6.4-4.3-10.4-11.5-10.4L18.3,184.2L18.3,184.2z"/>
				<path d="M81.1,169.5h49.6v14.7H98.4v19.7h27.5v14.7H98.4v21.3h32.3v14.7H81.1V169.5z M97.9,162.2l13.7-16.4h17.8l-15.8,16.4
					H97.9z"/>
				<path d="M150.8,169.5h28.1c18.7,0,30.1,9.6,30.1,25.4c0,15.7-11.4,25.3-30.1,25.3H168v34.4h-17.3L150.8,169.5L150.8,169.5z
					 M168,184.2v21.3h11.6c7.3,0,11.7-3.9,11.7-10.8c0-6.4-4.4-10.4-11.7-10.4L168,184.2L168,184.2z"/>
				<path d="M273.4,169.5h17.3v51.8c0,22.4-13.1,35.7-34.5,35.7c-21.3,0-34.4-13.4-34.4-35.7v-51.8H239v53.2
					c0,11.4,6.4,18.1,17.3,18.1c10.6,0,17.1-6.7,17.1-18.1V169.5z"/>
				<path d="M312.1,169.5h24.2c17.8,0,28.5,8.8,28.5,23.1c0,6.8-3.2,12.8-9,16.8c9,4,14,11.3,14,20.2c0,15.6-12,25-31.6,25h-26
					L312.1,169.5L312.1,169.5z M329.4,184.2v18.6h7.3c6.6,0,10.3-3.3,10.3-9.4c0-5.7-3.8-9.2-10.3-9.2H329.4z M329.4,217.6v22.2h9.7
					c8,0,12.9-4.2,12.9-11.3s-4.9-10.9-12.9-10.9L329.4,217.6L329.4,217.6z"/>
				<path d="M387.3,169.5h17.3v69.4h32.3v15.7h-49.6V169.5z"/>
				<path d="M452.1,169.5h17.3v85.1h-17.3V169.5z"/>
				<path d="M582.5,260.5c1.8,0,4.2-0.2,6.1-1v14.6c-2.8,1.1-5.2,1.6-9,1.6c-9.5,0-18.2-3.9-26.6-11.2l-10.1-9
					c-3.7,1-7.5,1.5-11.7,1.5c-26.9,0-45.2-20.7-45.2-45s18.4-45,45.2-45c26.7,0,45.1,20.7,45.1,45c0,14.2-6.3,27.2-16.8,35.5
					l5.1,4.9C571.2,258.3,577,260.5,582.5,260.5z M558.5,212c0-16.3-11.4-28.8-27.3-28.8c-16,0-27.5,12.5-27.5,28.8
					s11.4,28.8,27.5,28.8C547.1,240.8,558.5,228.3,558.5,212z"/>
				<path d="M643,169.5h17.3v51.8c0,22.4-13.1,35.7-34.5,35.7c-21.3,0-34.4-13.4-34.4-35.7v-51.8h17.3v53.2
					c0,11.4,6.4,18.1,17.3,18.1c10.6,0,17.1-6.7,17.1-18.1V169.5z"/>
				<path d="M681.7,169.5h49.6v14.7h-32.3v19.7h27.5v14.7h-27.5v21.3h32.3v14.7h-49.6V169.5z"/>
				<path d="M1,292.2h49.6v14.7H18.3v19.7h27.5v14.7H18.3v36H1V292.2z"/>
				<path d="M65.8,292.2h26c18.7,0,30.3,9.6,30.3,25.4c0,10.2-5,17.9-13.6,22l26.7,37.7h-20.7l-22.6-34.4h-8.9v34.4H65.8V292.2z
					 M83.1,306.9v21.3h9.7c7.3,0,11.6-3.9,11.6-10.8c0-6.4-4.3-10.5-11.6-10.5L83.1,306.9L83.1,306.9z"/>
				<path d="M171.1,292.2h22.6l32.2,85.1h-18.4l-8.1-22.1h-34l-8.1,22.1h-18.4L171.1,292.2z M194.1,340.4l-11.7-32l-11.7,32H194.1z"
					/>
				<path d="M239,292.2h22.1l38,60.9v-60.9h17.3v85.1h-22.1l-38-61.1v61.1H239L239,292.2L239,292.2z"/>
				<path d="M400.5,351.9l13.6,10.5c-6.6,9-16.8,15.3-29.2,16.9l-10.6,17.6H359l10.7-17.9c-22.1-3.9-36.7-22.6-36.7-44.2
					c0-24.3,18.4-45,45.2-45c15.4,0,28.1,6.9,35.9,17.3l-13.6,10.6c-4.9-6.9-12.5-11.7-22.2-11.7c-16,0-27.5,12.5-27.5,28.8
					s11.4,28.8,27.5,28.8C388,363.5,395.6,358.8,400.5,351.9z"/>
				<path d="M450,292.2h22.6l32.2,85.1h-18.4l-8.1-22.1h-34l-8.1,22.1h-18.4L450,292.2z M472.9,340.4l-11.7-32l-11.7,32H472.9z"/>
				<path d="M517.9,292.2h17.3v85.1h-17.3V292.2z"/>
				<path d="M563.8,353.9c5.1,6.6,11.9,10.5,18.8,10.5c6.8,0,10.9-3.6,10.9-9.9c0-15.2-38.9-11.8-38.9-40.1
					c0-13.5,11.1-24.7,27.2-24.7c12.8,0,22.6,5.7,29.8,14.3l-12.6,11.3c-5-6.4-10.6-10.6-17-10.6c-6,0-9.8,3.9-9.8,8.9
					c0,15.2,38.9,11.7,38.9,40.5c-0.2,15.8-12.6,25.5-28.2,25.5c-14.3,0-24.1-5.2-31.6-14.2L563.8,353.9z"/>
				<path d="M629.3,292.2h49.6v14.7h-32.3v19.7H674v14.7h-27.5v21.3h32.3v14.7h-49.6V292.2z"/>
			</g>
		</g>
		<g>
			<path d="M277.9,612.2c2.3,0,4.3,1.8,3.2,6.2l-10.7,2.5C272.3,615.9,275.4,612.2,277.9,612.2 M283.8,629.5h-2.1
				c-2.7,3.2-5.5,5.7-8.4,5.7c-2.9,0-4.4-1.8-4.4-5.7c0-1.6,0.2-3.2,0.5-4.7l17.3-5.7c3.4-8-0.7-11.5-5.4-11.5
				c-8.2,0-17.5,13.7-17.5,25.6c0,5.4,2.6,8.3,6.5,8.3C275,641.6,279.8,637,283.8,629.5 M280.4,604.4l12.2-11.3v-1.3H286l-7.5,12.7
				L280.4,604.4L280.4,604.4z M243.1,612.4h5.7l-9.1,24.9c-0.8,2.1,0.3,4.2,2.5,4.2c5.2,0,13.5-5.1,16.5-12.1h-1.6
				c-2.3,2.4-6.7,5.7-10.5,6.4l8.4-23.4h8.5l1.1-3.6h-8.3l3.2-9h-3.3l-5.9,9l-7.1,1L243.1,612.4L243.1,612.4z M235.4,611.2
				c0.7-2.3-0.9-3.6-2.1-3.6c-5,0-10.9,4.5-13.3,10.8h1.6c1.6-2.3,4.4-4.9,6.9-5.3l-9.6,24.8c-0.9,2.3,0.9,3.6,2.1,3.6
				c4.7,0,10.3-4.5,12.7-10.8h-1.6c-1.6,2.3-4.4,4.9-6.9,5.3L235.4,611.2z M237.1,598.8c2.2,0,4.1-1.8,4.1-4.1
				c0-2.2-1.9-4.1-4.1-4.1c-2.3,0-4.1,1.9-4.1,4.1C233,597,234.8,598.8,237.1,598.8 M182.1,636.9c-1.2,2.8,0.1,4.6,2.8,4.6
				c1.7,0,2.4-0.4,3.1-2.2l6.6-17.5c3.1-3.7,9.4-7.7,11.9-7.7c1.8,0,1.6,1.5,0.4,3.7l-10.2,19.5c-1,1.9,0.3,4.2,2.5,4.2
				c5,0,10.9-4.5,13.3-10.8h-1.6c-1.6,2.3-4.4,4.9-6.9,5.3l8.7-17.7c1.1-2.2,1.7-4.4,1.7-6c0-2.9-1.6-4.7-4.6-4.7
				c-4.3,0-8.7,4.9-13.9,10.9v-4.6c0-3.3-1.1-6.2-4.1-6.2c-1.9,0-3.7,1.6-5.4,3.9v0.6c3.2-0.2,4.7,4.7,2.4,9.8L182.1,636.9z
				 M182,615.2c1.2-4.1,0.6-7.6-2.6-7.6c-3.7,0-4.6,2.8-8.4,10.9v-4.6c0-3.3-1.1-6.2-4.1-6.2c-3.5,0-6.7,5.4-9.1,10.8h1.6
				c1.7-2.4,3.2-3.9,4.5-3.9c1.5,0,2.3,2.3,0,7.4l-6.7,15c-1.2,2.8,0.1,4.6,2.8,4.6c1.7,0,2.4-0.4,3.1-2.2l6.6-17.5
				c1.9-2.3,3.6-4.3,5.7-6.5L182,615.2L182,615.2z M143.7,612.2c2.3,0,4.3,1.8,3.2,6.2l-10.7,2.5
				C138.1,615.9,141.2,612.2,143.7,612.2 M149.6,629.5h-2.1c-2.7,3.2-5.6,5.7-8.4,5.7c-2.9,0-4.4-1.8-4.4-5.7c0-1.6,0.2-3.2,0.5-4.7
				l17.3-5.7c3.4-8-0.7-11.5-5.4-11.5c-8.2,0-17.5,13.7-17.5,25.6c0,5.4,2.6,8.3,6.6,8.3C140.8,641.6,145.6,637,149.6,629.5
				 M108.9,612.4h5.7l-9.1,24.9c-0.8,2.1,0.3,4.2,2.5,4.2c5.2,0,13.5-5.1,16.5-12.1h-1.6c-2.3,2.4-6.7,5.7-10.5,6.4l8.4-23.4h8.5
				l1.1-3.6H122l3.2-9h-3.3l-5.9,9l-7.1,1L108.9,612.4L108.9,612.4z M77.4,631.8c0-7.7,8.6-18.1,13.3-18.1c1.1,0,2.1,0.1,2.9,0.4
				l-5,13.3c-2.9,3.5-7.3,7.7-9.4,7.7C78.1,635.1,77.4,634.1,77.4,631.8 M103.7,606.2L101,606l-2.9,2.9h-0.6
				c-14.2,0-26.5,16-26.5,27.6c0,3.2,2,5.1,5.1,5.1c3.7,0,7.3-5.2,11.3-10.9l-0.2,2c-0.5,5.7,1.2,8.9,4.2,8.9
				c3.5,0,6.7-5.4,9.1-10.8H99c-1.7,2.4-3.2,3.9-4.5,3.9c-1.3,0-2.2-2.4,0-7.4L103.7,606.2z M73.3,615.2c1.2-4.1,0.6-7.6-2.6-7.6
				c-3.7,0-4.6,2.8-8.4,10.9v-4.6c0-3.3-1.1-6.2-4.1-6.2c-3.5,0-6.7,5.4-9.1,10.8h1.6c1.7-2.4,3.2-3.9,4.5-3.9c1.5,0,2.3,2.3,0,7.4
				l-6.7,15c-1.2,2.8,0.1,4.6,2.8,4.6c1.7,0,2.4-0.4,3.1-2.2l6.6-17.5c1.9-2.3,3.6-4.3,5.7-6.5L73.3,615.2L73.3,615.2z M25.5,640.3
				l0.6-1.9c-8.3-1.6-9.4-1.6-6.1-10.6l3.4-9.3h9.2c4.1,0,4.2,1.7,3.6,6.2h2.4l5.5-15h-2.4c-2.1,3.6-3.7,6.2-8.2,6.2h-9l4.8-13.2
				c1.5-4.2,2.4-5,8-5h4c5.8,0,6.5,1.6,6.5,7.4h2.3l1.9-10.2H17.6l-0.6,1.9c6.7,1.4,7.3,2,4.2,10.6l-7.5,20.5
				c-3.1,8.5-4.4,9.2-12.1,10.6L1,640.3L25.5,640.3L25.5,640.3z"/>
			<path d="M194.4,534.2c2.3,0,4.3,1.8,3.2,6.2l-10.7,2.5C188.8,537.9,191.9,534.2,194.4,534.2 M200.3,551.5h-2.1
				c-2.7,3.2-5.6,5.7-8.4,5.7c-2.9,0-4.4-1.8-4.4-5.7c0-1.6,0.2-3.2,0.5-4.7l17.3-5.7c3.4-8-0.7-11.5-5.4-11.5
				c-8.2,0-17.5,13.7-17.5,25.6c0,5.4,2.6,8.3,6.6,8.3C191.4,563.6,196.3,559,200.3,551.5 M196.9,526.5l12.2-11.3v-1.3h-6.6
				l-7.5,12.7L196.9,526.5L196.9,526.5z M159.6,534.4h5.7l-9.1,24.9c-0.8,2.1,0.3,4.2,2.5,4.2c5.2,0,13.5-5.1,16.5-12.1h-1.6
				c-2.3,2.4-6.7,5.7-10.5,6.4l8.4-23.4h8.6l1.1-3.6h-8.3l3.2-9h-3.3l-5.9,9l-7.1,1L159.6,534.4L159.6,534.4z M151.8,533.2
				c0.7-2.3-0.9-3.6-2.1-3.6c-5,0-10.9,4.5-13.3,10.8h1.6c1.6-2.3,4.4-4.9,6.9-5.3l-9.6,24.8c-0.9,2.3,0.9,3.6,2.1,3.6
				c4.7,0,10.3-4.5,12.7-10.8h-1.6c-1.6,2.3-4.4,4.9-6.9,5.3L151.8,533.2z M153.6,520.8c2.2,0,4.1-1.8,4.1-4.1
				c0-2.2-1.9-4.1-4.1-4.1c-2.3,0-4.1,1.9-4.1,4.1C149.4,519,151.2,520.8,153.6,520.8 M120.4,558.1l17.4-45.6l-0.6-0.7l-10.9,1.2
				v1.3l2.1,1.6c1.9,1.5,1.3,2.9-0.4,7.5l-13.6,35.8c-1,1.9,0.3,4.2,2.5,4.2c5,0,10.3-4.5,12.7-10.8h-1.6
				C126.3,555.1,122.9,557.6,120.4,558.1 M87.3,553.8c0-7.7,8.6-18.1,13.3-18.1c1.1,0,2.1,0.1,2.9,0.4l-5,13.3
				c-2.9,3.5-7.3,7.7-9.4,7.7C88.1,557.1,87.3,556.2,87.3,553.8 M113.6,528.2l-2.6-0.2l-2.9,2.9h-0.6c-14.2,0-26.5,16-26.5,27.6
				c0,3.2,2,5.1,5.1,5.1c3.7,0,7.3-5.2,11.3-10.9l-0.2,2c-0.5,5.7,1.2,8.9,4.2,8.9c3.5,0,6.7-5.4,9.1-10.8h-1.6
				c-1.7,2.4-3.2,3.9-4.5,3.9c-1.3,0-2.2-2.4,0-7.4L113.6,528.2z M50.1,569.6c0-3.3,3.2-5.4,7.7-7.2c1.5,0.8,3.7,1.6,6.7,2.6
				c4.7,1.6,6.6,2.2,6.6,3.6c0,3.1-5.2,5.4-12.2,5.4C52.9,574,50.1,572.7,50.1,569.6 M63,549.5c-2.1,0-2.9-1.8-2.9-3.7
				c0-5.5,3-13.7,7.7-13.7c2.1,0,2.9,1.8,2.9,3.7C70.7,541.3,67.7,549.5,63,549.5 M76.5,566.6c0-4-3.6-5.4-9.4-7.2
				c-5-1.5-7.2-1.9-7.2-3.6c0-1.3,1.1-2.9,3.2-4c8.2-0.4,13.5-7.8,13.5-14c0-1.3-0.2-2.4-0.7-3.4h6.9l1.1-3.6h-11
				c-1.3-0.8-2.9-1.2-4.4-1.2c-8.7,0-14.3,7.6-14.3,13.8c0,4.7,3,7.6,6.6,8.3c-4.1,1.8-6.3,3.9-6.3,6.4c0,1.4,0.5,2.4,1.7,3.4
				c-9.4,2.8-13,5.9-13,10.3c0,4.3,5.7,6.1,12.4,6.1C67,577.9,76.5,571.7,76.5,566.6 M32.9,539.9c4.1,0,4.2,1.7,3.6,6.2h2.4l5.5-15
				H42c-2.1,3.6-3.7,6.2-8.2,6.2h-9l4.5-12.5c1.5-4.2,2.4-5,8-5h4c5.8,0,6.5,1.6,6.5,7.4h2.3l1.9-10.2H17.6l-0.6,1.9
				c6.7,1.4,7.3,2,4.2,10.6l-7.5,20.5c-3.1,8.5-4.4,9.2-12.1,10.6L1,562.3h38.3l6.9-10.9h-2.6c-4.4,4.1-9.9,8-17.5,8
				c-10.2,0-9.2-0.4-5.9-9.7l3.6-9.9L32.9,539.9L32.9,539.9z M37.9,513.7l12.2-8.4V504h-7.4l-6.7,9.7H37.9z"/>
			<path d="M190.3,456.3c2.3,0,4.3,1.8,3.2,6.2l-10.7,2.5C184.7,459.9,187.8,456.3,190.3,456.3 M196.2,473.5h-2.1
				c-2.7,3.2-5.6,5.7-8.4,5.7c-2.9,0-4.4-1.8-4.4-5.7c0-1.6,0.2-3.2,0.5-4.7l17.3-5.7c3.4-8-0.7-11.5-5.4-11.5
				c-8.2,0-17.5,13.7-17.5,25.6c0,5.4,2.6,8.3,6.6,8.3C187.4,485.6,192.2,481,196.2,473.5 M192.8,448.5l12.2-11.4v-1.3h-6.6
				l-7.5,12.7L192.8,448.5L192.8,448.5z M157.1,456.5h4.6l-9.1,24.9c-0.8,2.1,0.3,4.2,2.5,4.2c5.2,0,13.5-5.1,16.5-12.1h-1.6
				c-2.3,2.4-6.7,5.7-10.5,6.4l8.4-23.4h8.6l1.1-3.6H169l3.2-9h-3.3l-5.9,9l-5.9,1L157.1,456.5L157.1,456.5z M152.6,459.2
				c1.2-4.1,0.6-7.6-2.6-7.6c-3.7,0-4.6,2.8-8.4,10.9v-4.6c0-3.3-1.1-6.2-4.1-6.2c-3.5,0-6.7,5.4-9.1,10.8h1.6
				c1.7-2.4,3.2-3.9,4.5-3.9c1.5,0,2.3,2.3,0,7.4l-6.7,15c-1.2,2.8,0.1,4.6,2.8,4.6c1.7,0,2.4-0.4,3.1-2.2l6.6-17.5
				c1.9-2.3,3.6-4.3,5.7-6.5L152.6,459.2L152.6,459.2z M114.3,456.3c2.3,0,4.3,1.8,3.2,6.2l-10.7,2.5
				C108.6,459.9,111.8,456.3,114.3,456.3 M120.2,473.5h-2.1c-2.7,3.2-5.6,5.7-8.4,5.7c-2.9,0-4.4-1.8-4.4-5.7c0-1.6,0.2-3.2,0.5-4.7
				l17.3-5.7c3.4-8-0.7-11.5-5.4-11.5c-8.2,0-17.5,13.7-17.5,25.6c0,5.4,2.6,8.3,6.6,8.3C111.3,485.6,116.2,481,120.2,473.5
				 M77.8,480.5c-1.7,0-4.1-1.6-4.1-2.9c0-0.4,0.8-2.4,1.7-4.8l2.8-7.4c3-3.6,7.6-7.4,10.1-7.4c1.6,0,2.8,1,2.8,3.3
				C91.1,468.1,84.7,480.5,77.8,480.5 M97.5,458.6c0-5-1.9-6.9-5.4-6.9c-4.4,0-8.5,4.6-12.6,10.2l10.4-27.4l-0.6-0.7L78.5,435v1.3
				l2.1,1.6c1.9,1.5,1.3,3.1-0.4,7.5l-11.2,29c-0.8,2.1-1.8,4.6-1.8,5.3c0,3,4.1,5.8,7.7,5.8C83.3,485.6,97.5,470.3,97.5,458.6
				 M63.5,455.3c0.7-2.3-0.9-3.6-2.1-3.6c-5,0-10.9,4.5-13.3,10.8h1.6c1.6-2.3,4.4-4.9,6.9-5.3L47.2,482c-0.9,2.3,0.9,3.6,2.1,3.6
				c4.7,0,10.3-4.5,12.7-10.8h-1.6c-1.6,2.3-4.4,4.9-6.9,5.3L63.5,455.3z M65.3,442.8c2.2,0,4.1-1.8,4.1-4.1c0-2.2-1.9-4.1-4.1-4.1
				c-2.3,0-4.1,1.9-4.1,4.1C61.2,441,63,442.8,65.3,442.8 M40.1,438.8H17.4l-0.6,1.9c6.7,1.4,7.3,2,4.2,10.6l-7.4,20.5
				c-3.1,8.5-4.4,9.2-12.1,10.6L1,484.3h34.6L43,471h-2.6c-4.2,4.7-9.2,10.5-16.9,10.5c-5.8,0-6.5-1-3.4-9.7l7.4-20.5
				c3.1-8.5,4.4-9.2,12.1-10.6L40.1,438.8z"/>
		</g>
		<g>
			<path class="st0" d="M129.2,99.7c1.2-1.2,2.4-2.5,3.6-3.8h0c2.3-2.6,4.5-5,7.1-7.3c0.8-0.7,1.6-1.3,2.3-1.9
				c0.2-0.2,0.2-0.6,0.4-0.8c-1.1,0.4-1.7,1.3-2.8,1.7c-0.2,0-0.4-0.2-0.2-0.4c0.8-0.6,1.5-1.1,2.3-1.7c-0.1,0-0.1,0-0.1,0
				c-0.2,0-0.2-0.2-0.2-0.4c-2.8-0.4-4.9,1.5-6.8,3.2c-0.4,0.2-0.9-0.2-1.1-0.2c-3.2,1.1-5.6,3.8-8.8,5.1c0-0.2,0-0.2,0-0.4
				c-1.3,0.4-2.5,1.2-3.8,1.5c-1.9,0.4-3.6,0.2-5.3,0.2c-2.6,0.3-5.2,0.8-7.8,1.4c-0.1,0-0.2,0-0.2,0.1c-1.4,0.4-2.7,0.9-4,1.6
				c-0.1,0-0.1,0.1-0.2,0.1c-0.1,0.1-0.2,0.3-0.3,0.4c-0.5,0.5-0.8,1-1.5,1.3c-1.3,0.7-2.4,1.8-3.5,2.8c-0.1,0.1-0.2,0.1-0.3,0.1
				c-1.2,1.1-2.3,2.2-3.4,3.3c-0.1,0.1-0.4,0.1-0.7,0.1c0,0,0,0,0,0c0-0.1,0.1-0.1,0.1-0.2c0.2-0.3,0.4-0.6,0.6-0.9
				c0.2-0.3,0.4-0.7,0.6-1c0.3-0.4,0.6-0.9,0.9-1.3c0.1-0.1,0.1-0.2,0-0.3s-0.2-0.1-0.3-0.1c1.1-1,2.3-1.9,3.6-2.7c0,0,0,0,0,0
				c-0.1,0.1-0.3-0.1-0.2-0.2c0.1-0.2,0.2-0.4,0.4-0.6c0-0.1,0.1-0.1,0.1-0.2c-0.1-0.1-0.1-0.1-0.2-0.2c-0.3,0.2-0.7,0.4-1,0.7
				c-0.5,0.5-0.9,1.4-1.7,1.4c-0.1,0-0.2,0-0.3-0.1c-0.1,0-0.2,0-0.2-0.1c0,0,0,0,0-0.1c0,0,0,0,0-0.1s0,0,0-0.1
				c0-0.1,0.1-0.1,0.1-0.2s0.1-0.1,0.1-0.2c0-0.1,0.1-0.1,0.1-0.2c0.1-0.1,0.1-0.2,0.2-0.3c0-0.1,0.1-0.1,0.1-0.2
				c0.1-0.2,0.2-0.3,0.3-0.5c0-0.1,0.1-0.2,0.1-0.2c0.1-0.1,0.2-0.3,0.2-0.4c0.1-0.2,0-0.3-0.2-0.4c0.4-0.5,0.9-0.9,1.5-1.3h-0.1
				c0.8-0.4,1.6-0.9,2.4-1.4c0.1-0.1,0.2-0.2,0.3-0.3c-1.2,0.4-2.3,1-3.4,1.7c0,0-0.3,0.1-0.4,0.2c0,0-0.2,0.1-0.5-0.2
				c0,0-0.1-0.1-0.1-0.2c0.2-0.4,0.8-0.6,1.3-1.1c0.2,0,0.4,0,0.4,0.2c6.8-5.3,16.2-4.1,24.1-6.8c0.6-0.4,1.3-0.8,1.9-1.3
				c1.1-0.4,1.9-1.5,3.2-2.1c1.7-1.3,3-2.8,3.6-4.9c0-0.2-0.2-0.4-0.2-0.4c-2.8,3-6,5.3-9.4,7.1c-4.5,2.3-9.4,1.9-14.1,2.6
				c0.2-0.4,0.6-0.4,1.1-0.4c0-0.6,0.4-0.8,0.8-1.3c0.2,0,0.4,0,0.6,0s0.2-0.4,0.4-0.4c0.4,0,1.1-0.2,0.8-0.2c-0.6-0.8-1.9,0.6-3,0
				c0.4-0.4,0.2-1.1,0.6-1.3c0.2,0,0.6,0,0.8,0c0-0.4,0.4-0.8,0.4-0.8c3.2-1.9,6.2-3.4,9.2-5.1c-0.6,0-1.1,0.6-1.7,0.2
				c0.4,0,0-0.6,0.4-0.6c2.3-0.6,4.3-1.9,6.6-2.8c-0.8,0-1.5,0.6-2.3,0c0.4-0.2,0.6-0.6,1.3-0.6c0-0.2,0-0.4,0-0.6s0.2-0.2,0.4-0.2
				c-0.2,0-0.4-0.2-0.4-0.2c0.2-0.4,0.8-0.2,1.3-0.6c-0.2,0-0.6,0-0.6-0.2c0.6-0.8,1.7-1.1,2.8-1.3c-0.2-0.4-0.8,0-0.8-0.4
				c0-0.2,0.2-0.2,0.4-0.2c-0.2,0-0.2,0-0.4,0c-0.4-0.2-0.2-0.6-0.2-0.8c1.3-1.5,1.3-3.4,1.9-5.1c-0.2,0-0.4,0-0.4-0.2
				c-2.1,2.3-5.6,3.2-8.8,4.1c-0.2,0-0.8,0-1.1,0c-1.1,0.4-2.6,0.4-3.6-0.2c-0.8-0.4-1.3-1.1-2.1-1.7c-1.7-1.1-3.4-1.9-5.3-2.6
				c-5.3-1.7-10.9-2.6-16.4-2.3c2.3-1.3,4.9-1.4,7.5-2.1c3.6-1.1,7.1-2.3,10.9-2.1c-0.6-0.2-1.5,0-2.1,0c-3-0.2-6,0.6-9.2,1.3
				c-2.1,0.4-4.1,1.3-6.2,1.7c-1.3,0.4-1.9,1.7-3.4,1.5c0,0,0-0.4,0-0.6c2.1-2.6,4.7-5.1,8.1-5.3c3.8-0.6,7.5,0,11.3,0.4
				c2.8,0.2,5.3,0.8,8.1,1.5c1.1,0,1.3,1.7,2.1,1.9c1.3,0.4,2.6,0,3.8,0.8c0-0.4-0.2-0.8,0-1.3c0.8-0.8,1.9,0.2,2.8-0.2
				c1.7-1.1-1.5-3-2.3-4.5c0-0.2,0.2-0.4,0.2-0.4c1.7,1.5,3,3.2,5.1,4.3c1.1,0.4,3.6,1.1,3.2-0.2c-1.1-2.3-3.2-4.3-4.9-6.4
				c0-0.2,0-0.6,0-0.8c-0.4,0-0.4-0.2-0.6-0.4c0-0.2,0-0.6,0-0.8c-0.8-0.4-0.6-1.3-1.1-1.9c-0.6-1.1-0.2-2.6-0.6-3.8
				s-0.6-2.3-0.8-3.6c-0.6-3.6-1.5-6.8-1.9-10.2c-0.4-4.1,2.3-7.3,4.3-10.9c1.5-2.6,3.2-5.1,6-6.8c0.6-2.6,2.4-4.7,4.1-6.8
				c1.7-2.1,4.5-3.3,6.6-4.3c3-1.3,5.7-2.2,5.7-2.2H0.7v113h103.8c4.1-2.9,8.1-4.3,13.8-7.1C121,104.6,127.1,101.7,129.2,99.7z
				 M96.3,84.4c-0.4,0-1.3,0.2-1.1-0.2c0.2-1.1,1.7-1.1,2.6-1.5c0.4-0.2,1.1-0.6,1.5-0.4c0.4,0.6,1.1,0.4,1.5,0.8
				C99.5,84.4,97.8,83.7,96.3,84.4z M63.7,79.7c0,0-0.2-0.2-0.2-0.4c2.8-3.6,4.9-7.1,6.8-10.9c2.8-1.5,5.1-3.7,7.3-6
				c3.6-3.8,7.5-7.3,12-9.4c1.7-0.6,3.8-0.4,5.6,0.2c-0.6,0.8-1.7,0.6-2.6,1.3c-0.2,0-0.4,0-0.6-0.2c0.2-0.2,0.2-0.4,0.2-0.6
				C89.9,56,87,57,85.2,59.8c-1.3,2.1-2.1,4.9-4.9,5.6c-0.8,0.2,0.2-0.6-0.2-0.4C73.5,69,68.8,73.9,63.7,79.7z M81.4,65.6
				c-0.2,0.4-0.4,0.5-0.6,0.8c-0.2,0.4-0.4,0.6-0.8,0.8c-0.2,0-0.4,0-0.4-0.2c0.2-0.8,0.8-1.7,1.7-1.9
				C81.4,65.1,81.4,65.4,81.4,65.6z M91.3,97.6c-0.1,0.2-0.3,0.4-0.5,0.6c0.3,0.1,0.4,0.2,0.3,0.3c-0.5,0.4-1,0.9-1.6,1.1
				c-0.1,0-0.2,0-0.3,0c-0.3,0.2-0.5,0.5-0.8,0.8c-0.2,0.2-1.4,0.1-1.1-0.3c0.5-0.5,1-1,1.6-1.5c0.3-0.3,0.6-0.5,0.9-0.8
				c0.2-0.2,0.3-0.3,0.5-0.5C90.3,97.2,91.5,97.1,91.3,97.6z M87.5,95.8C87.5,95.8,87.4,95.8,87.5,95.8c-0.9,0.6-1.7,1.2-2.5,1.7
				c-0.9,0.5-1.9,0.9-2.8,1.4c0,0,0,0,0-0.1c-0.1-0.1-0.2-0.2-0.4-0.1c-0.8,0.4-1.5,1-2.2,1.6c-0.1,0.1-0.2,0.2-0.3,0.3c0,0,0,0,0,0
				c0,0,0,0,0,0c-0.1,0.1-0.2,0.2-0.3,0.3c0,0,0,0,0,0c0,0,0,0,0,0c-0.2,0.2-0.3,0.3-0.5,0.5c-0.1,0.1-0.1,0.2-0.3,0.3
				c-0.1,0.1-0.5,0.1-0.5-0.2c0,0,0,0,0,0c-0.1,0.1-0.2,0.1-0.4,0.2c-0.1,0.1-0.2,0.1-0.3,0.2c-0.1,0-0.1,0-0.2,0s-0.1,0-0.2,0.1
				c-0.3,0.2-0.5,0.4-0.8,0.7c-0.4,0.4-0.9,0.8-1.2,1.3c0,0,0,0,0,0c0,0,0,0,0,0.1c0,0,0,0.1-0.1,0.1s-0.1,0.1-0.1,0.1c0,0,0,0,0,0
				c-0.1,0.1-0.1,0.1-0.2,0.2l0,0c0,0-0.1,0.1-0.2,0.1c0,0-0.1-0.1-0.1-0.1c0,0,0-0.1-0.1-0.1c-0.1-0.1-0.1-0.2-0.2-0.3c0,0,0,0,0,0
				c0,0,0-0.1-0.1-0.1c0.2-0.2,0.4-0.5,0.7-0.8c0,0,0,0,0-0.1c0.1-0.1,0.2-0.2,0.2-0.3c0.1-0.2,0.2-0.3,0.4-0.5
				c0-0.1,0.1-0.1,0.1-0.2c0.2-0.3,0.5-0.6,0.7-0.9c0,0,0,0,0,0c0,0,0.1-0.1,0.1-0.1c0.1-0.2,0.2-0.3,0.3-0.5
				c0.1-0.1,0.2-0.3,0.2-0.4c0,0,0,0,0,0c0,0,0,0,0,0c0,0,0-0.1,0-0.1c0.1-0.2,0.1-0.3,0.2-0.5c0,0,0,0,0-0.1c0-0.1,0-0.1,0.1-0.1
				c0-0.1,0.1-0.2,0.1-0.2l0,0c0,0,0,0,0-0.1c0-0.1,0.1-0.2,0.1-0.3c0-0.1,0-0.1,0-0.1c0.2-0.4,0.5-0.8,0.8-1.2c0,0-0.1,0-0.1,0.1
				c-0.3,0.2-0.5,0.5-0.8,0.7c-0.2,0.2-0.7-0.1-0.4-0.3c0.2-0.1,0.3-0.3,0.5-0.4c0,0,0,0,0,0c0.3-0.3,0.7-0.8,1.1-1.1
				c0.2-0.2,0.5-0.3,0.7-0.5c0,0,0.1-0.1,0.1-0.1c0.2-0.2,0.3-0.4,0.5-0.5c0,0,0,0,0,0c2-2,5.5-1.9,8.2-3.1c1.1-0.4,2.3,0.2,3.4,0
				c0.6,0,1.3,0,1.9,0.4C91,93.5,89.2,94.7,87.5,95.8z M91.8,80.9c-0.2-0.2,0.6,0,0.8-0.4c-0.6,0-1.1,0-1.7,0
				c-0.2,0-0.2-0.2-0.2-0.4c-1.1,0.2-2.3,0.6-3.4,0.8c-1.5,0.4-2.8,1.5-4.5,1.9c-2.3,0.8-4.3,2.8-6.8,3.6c-0.2,0-0.2-0.2-0.2-0.4
				c0.2-0.6,1.1-0.8,1.5-1.5c0-0.2,0-0.4-0.2-0.4c1.7-2.3,4.1-3.6,6.2-5.6c0-0.2,0-0.4,0-0.6c0.6-0.8,1.7-1.3,2.1-2.3
				c0.2-0.6,1.1-1.5,2.1-1.9c-0.2-0.2-0.6-0.2-0.6-0.6c-0.8,0-1.7,0.4-2.6-0.2c0.4-0.4,0.9-0.6,1.3-0.8c-0.2,0-0.3-0.1-0.5-0.3
				c-0.2-0.4,0.4-0.9,1.1-1.1c0.8-0.2,1.9-0.2,2.6-0.8c-1.5-0.2-3.2,0.4-4.7-0.4c1.1-2.8,2.8-5.1,5.3-6.4c0.2,0,0.6,0,0.6,0.2
				c0,1.1-0.6,1.9-1.7,2.1c1.7,0.4,3.4,0.4,5.1,1.3c-0.2,0.4-0.6,0.2-0.8,0.2c1.1,0.6,2.3,0.2,3.4,1.1c-0.6,0.6-1.3,0-1.9,0
				c6.6,1.9,13.7,3.4,19.2,7.7c-4.7,2.3-9.6,3.4-14.7,4.5c-0.6,0-1.1,0-1.7-0.2c0,0.2,0,0.6-0.2,0.6c-0.8,0-1.5,0-2.1,0.4
				C93.8,81.4,92.5,81.6,91.8,80.9z"/>
			<g>
				<path class="st1" d="M311.4,0H189.9c0,0,0.2,0,1.1,0.5c1,0.5,2.3,1.2,3.1,1.6c1.6,0.8,3.1,1.8,4.1,3.4c0.4,0.6,1.1,1.9,0.6,2.8
					c-0.4,1.1-0.6,2.8-1.7,3.2c-1.3,0.6-3,0.6-4.5,0.4c-0.9,0-1.7-0.2-2.6-0.4c3.2,1.3,6.2,2.8,8.3,5.8c0.2,0.4,1.1,0.6,1.9,0.6
					c0.2,0,0.2,0.4,0.2,0.6c-0.4,0.4-0.9,0.6-0.6,1.3c0.2,0,0.4,0,0.6,0c1.1-0.4,0.9-2.6,2.4-1.9c1.1,0.6,1.5,2.1,0.9,3.2
					c-0.9,0.9-1.7,1.5-2.6,2.1c-0.2,0.4-0.2,1.1,0,1.5c0.6,0.9,0.9,1.7,1.1,2.6c0.6,1.5,0.9,3.2,1.5,4.7c0.9,3.2,1.7,6.4,1.5,9.6
					c0,1.7-0.9,3.2-0.2,4.9c0.4,1.7,1.5,3,2.4,4.5c0.9,1.3,1.7,2.1,2.4,3.4c1.3,2.1,3.6,4.3,2.6,6.8c-0.6,1.5-3,1.3-4.5,2.1
					c-1.3,1.1-0.2,2.8,0.4,3.8c1.1,1.9-1.3,3.2-2.8,3.8c0.4,0.6,1.3,0.4,1.5,0.8c0.2,1.1,1.3,1.7,0.6,2.8c-0.9,1.3-3.4,1.9-2.1,3.8
					c0.9,1.5,0.3,3.2-0.2,4.7c-0.6,1.9-2.4,2.8-3.8,3.2c-1.3,0.4-2.8,0.4-4.1,0.2c-0.4-0.2-0.9-0.4-1.3-0.4
					c-3.6-0.4-7.3-1.5-10.9-1.5c-1.1,0.2-2.1,0.4-3,0.8c-1,0.7-1.8,1.5-2.6,2.3c0,0,0,0,0,0c-0.2,0.2-0.3,0.3-0.5,0.5
					c-0.1,0.1-0.2,0.2-0.3,0.3c-0.1,0.1-0.1,0.2-0.2,0.2c-0.6,0.8-1.2,1.6-1.7,2.5c0,0.1-0.1,0.1-0.1,0.2c-0.1,0.1-0.1,0.2-0.2,0.3
					c-0.7,1.3-1.2,2.6-1.6,3.9c-1.4,4.9-0.8,9.1,0.2,10.1c0.3,0.3,7.1,2.4,11.8,4.5c2.2,1,3.8,1.7,5,2.6h119.4L311.4,0L311.4,0z"/>
			</g>
			<path class="st2" d="M197.1,41.2c0.9,0.2,2.1,0.2,2.1,0.6c-0.4,1.7-3,2.1-4.3,3.8h-0.6c-0.6,0.4-0.4,1.5-1.1,1.5
				c-0.6-0.2-1.3,0-1.9,0.2c0.9,0.8,1.9,1.5,3.2,1.3c0.2,0,0.6,0.4,0.6,0.8c0,0,0.2,0,0.4-0.2c0.2,0,0.4,0,0.4,0.2v0.8
				c-0.6,0.8-1.7,0.4-2.6,0.6c1.7,0.4,3.4,0.4,4.9,0c1.3-0.4,0-2.6,0.9-3.6c-0.4,0,0-0.6-0.4-0.6c0.4-0.4,0.9-1.1,1.3-1.3
				c0.4,0,1.1-0.2,1.3-0.6c0-0.4-0.9-0.6-0.6-1.1c1.3-0.8,2.4-2.1,1.9-3.4c-0.2-0.6-1.9-0.6-3-1.1s-2.4,0-3.6,0.2
				c-1.1,0-2.1,0.6-3.2,0.8c-1.5,0.4-2.8,1.3-4.1,2.1c1.5-0.6,3-0.8,4.7-1.3C194.8,41.2,195.9,40.9,197.1,41.2z"/>
		</g>
	</g>
</g>
</svg>
